<svg xmlns="http://www.w3.org/2000/svg" viewBox="-2 -2 100 78" fill="currentColor" fill-rule="evenodd">
  <!-- Striped Modern Meem (م) — 3 concentric bands, arch + wave tail -->
  <path d="
    M 88 68 L 88 24 C 88 2 12 2 12 24 L 12 40 C 12 52 2 56 2 62 C 2 72 16 72 24 62 L 32 66 Z
    M 82 63 L 82 26 C 82 7 18 7 18 26 L 18 39 C 18 50 9 53 9 58 C 9 67 21 67 28 58 L 35 62 Z
    M 77 59 L 77 27 C 77 12 23 12 23 27 L 23 39 C 23 48 15 50 15 55 C 15 62 26 62 31 55 L 37 58 Z
    M 72 55 L 72 29 C 72 16 28 16 28 29 L 28 38 C 28 45 22 48 22 51 C 22 57 30 57 35 51 L 39 54 Z
    M 68 51 L 68 30 C 68 20 33 20 33 30 L 33 38 C 33 43 28 45 28 48 C 28 53 34 53 38 48 L 42 50 Z
    M 63 47 L 63 32 C 63 25 38 25 38 32 L 38 37 C 38 41 34 43 34 45 C 34 48 39 48 41 45 L 44 46 Z
  "/>
</svg>
