<svg xmlns="http://www.w3.org/2000/svg" viewBox="114 148 101 146" fill-rule="evenodd">
  <!-- Branded Organic Meem (م) — Brand Green with depth -->
  <defs>
    <linearGradient id="brand-main" x1="0.15" y1="0" x2="0.85" y2="1">
      <stop offset="0%" stop-color="#34d399"/>
      <stop offset="35%" stop-color="#10b981"/>
      <stop offset="70%" stop-color="#059669"/>
      <stop offset="100%" stop-color="#047857"/>
    </linearGradient>
    <linearGradient id="brand-hl" x1="0.3" y1="0" x2="0.5" y2="0.6">
      <stop offset="0%" stop-color="#a7f3d0" stop-opacity="0.5"/>
      <stop offset="100%" stop-color="#10b981" stop-opacity="0"/>
    </linearGradient>
    <linearGradient id="brand-edge" x1="0" y1="0.2" x2="1" y2="0.8">
      <stop offset="0%" stop-color="#047857"/>
      <stop offset="50%" stop-color="#065f46"/>
      <stop offset="100%" stop-color="#047857"/>
    </linearGradient>
  </defs>

  <!-- Shadow -->
  <g transform="translate(3, 3)" opacity="0.10">
    <path fill="#000" d="M177,156.577c-8.706,1.423-15.241,6.257-17.357,8.65-2.167,2.441-6.147,6.7-7.332,16.905a22.5,22.5,0,0,0-6.146,1.177C141.051,185,133.3,188.382,128.5,196.9c-6.245,10.51-6.639,18.538-4.918,29.366a107.479,107.479,0,0,0,6.079,21.233,170.644,170.644,0,0,0,11.662,23.951c9,15.2,15.162,11.33,15.162,11.33s3.214-1.5,2.608-7.314c-.787-7.318-4.208-15.237-7.753-25.458-3.676-10.615-9.41-28.628-9.161-43.646a15.176,15.176,0,0,1,6.914.213c2.977.638,13.827,6.267,18.231,8.775,4.389,2.485,9.157,5.248,10.66,6s9.584,5.142,17.985,1.4c8.5-3.8,11.39-16.2,10.992-21.94-.426-5.931-9.2-26.056-12.387-31.049-2.946-4.645-7.724-13.344-15.709-13.344a10.621,10.621,0,0,0-1.863.158m-3,33.554c-2.086-1.209-5.535-3.129-5.535-3.129a39.562,39.562,0,0,1,2.981-18.02c.822.526,9.23,8.512,14.269,28.126-2.914-1.713-9.637-5.758-11.715-6.977"/>
  </g>

  <!-- Edge -->
  <path fill="url(#brand-edge)" stroke="url(#brand-edge)" stroke-width="1.5" stroke-linejoin="round" d="M177,156.577c-8.706,1.423-15.241,6.257-17.357,8.65-2.167,2.441-6.147,6.7-7.332,16.905a22.5,22.5,0,0,0-6.146,1.177C141.051,185,133.3,188.382,128.5,196.9c-6.245,10.51-6.639,18.538-4.918,29.366a107.479,107.479,0,0,0,6.079,21.233,170.644,170.644,0,0,0,11.662,23.951c9,15.2,15.162,11.33,15.162,11.33s3.214-1.5,2.608-7.314c-.787-7.318-4.208-15.237-7.753-25.458-3.676-10.615-9.41-28.628-9.161-43.646a15.176,15.176,0,0,1,6.914.213c2.977.638,13.827,6.267,18.231,8.775,4.389,2.485,9.157,5.248,10.66,6s9.584,5.142,17.985,1.4c8.5-3.8,11.39-16.2,10.992-21.94-.426-5.931-9.2-26.056-12.387-31.049-2.946-4.645-7.724-13.344-15.709-13.344a10.621,10.621,0,0,0-1.863.158m-3,33.554c-2.086-1.209-5.535-3.129-5.535-3.129a39.562,39.562,0,0,1,2.981-18.02c.822.526,9.23,8.512,14.269,28.126-2.914-1.713-9.637-5.758-11.715-6.977"/>

  <!-- Main body -->
  <path fill="url(#brand-main)" d="M177,156.577c-8.706,1.423-15.241,6.257-17.357,8.65-2.167,2.441-6.147,6.7-7.332,16.905a22.5,22.5,0,0,0-6.146,1.177C141.051,185,133.3,188.382,128.5,196.9c-6.245,10.51-6.639,18.538-4.918,29.366a107.479,107.479,0,0,0,6.079,21.233,170.644,170.644,0,0,0,11.662,23.951c9,15.2,15.162,11.33,15.162,11.33s3.214-1.5,2.608-7.314c-.787-7.318-4.208-15.237-7.753-25.458-3.676-10.615-9.41-28.628-9.161-43.646a15.176,15.176,0,0,1,6.914.213c2.977.638,13.827,6.267,18.231,8.775,4.389,2.485,9.157,5.248,10.66,6s9.584,5.142,17.985,1.4c8.5-3.8,11.39-16.2,10.992-21.94-.426-5.931-9.2-26.056-12.387-31.049-2.946-4.645-7.724-13.344-15.709-13.344a10.621,10.621,0,0,0-1.863.158m-3,33.554c-2.086-1.209-5.535-3.129-5.535-3.129a39.562,39.562,0,0,1,2.981-18.02c.822.526,9.23,8.512,14.269,28.126-2.914-1.713-9.637-5.758-11.715-6.977"/>

  <!-- Highlight -->
  <path fill="url(#brand-hl)" d="M177,156.577c-8.706,1.423-15.241,6.257-17.357,8.65-2.167,2.441-6.147,6.7-7.332,16.905a22.5,22.5,0,0,0-6.146,1.177C141.051,185,133.3,188.382,128.5,196.9c-6.245,10.51-6.639,18.538-4.918,29.366a107.479,107.479,0,0,0,6.079,21.233,170.644,170.644,0,0,0,11.662,23.951c9,15.2,15.162,11.33,15.162,11.33s3.214-1.5,2.608-7.314c-.787-7.318-4.208-15.237-7.753-25.458-3.676-10.615-9.41-28.628-9.161-43.646a15.176,15.176,0,0,1,6.914.213c2.977.638,13.827,6.267,18.231,8.775,4.389,2.485,9.157,5.248,10.66,6s9.584,5.142,17.985,1.4c8.5-3.8,11.39-16.2,10.992-21.94-.426-5.931-9.2-26.056-12.387-31.049-2.946-4.645-7.724-13.344-15.709-13.344a10.621,10.621,0,0,0-1.863.158m-3,33.554c-2.086-1.209-5.535-3.129-5.535-3.129a39.562,39.562,0,0,1,2.981-18.02c.822.526,9.23,8.512,14.269,28.126-2.914-1.713-9.637-5.758-11.715-6.977"/>
</svg>
